<?xml version="1.0" encoding="UTF-8"?>
<svg version="1.1" xmlns="http://www.w3.org/2000/svg" width="500" height="500">
<path d="M0 0 C165 0 330 0 500 0 C500 165 500 330 500 500 C335 500 170 500 0 500 C0 335 0 170 0 0 Z " fill="#FEFEFE" transform="translate(0,0)"/>
<path d="M0 0 C32.75394937 -0.7586514 66.10354624 10.29166826 90.14331055 32.96337891 C91.59991633 34.35910378 93.05196671 35.75957784 94.50390625 37.16015625 C95.35855469 37.94003906 96.21320313 38.71992187 97.09375 39.5234375 C118.58787461 59.72723551 132.41803914 90.76309102 133.62768555 120.16918945 C134.26388315 147.18899097 134.26388315 147.18899097 130.50390625 160.16015625 C130.3322998 160.78712402 130.16069336 161.4140918 129.98388672 162.06005859 C122.54670542 189.10375003 108.56998027 209.7052317 88.50390625 229.16015625 C90.42447917 229.77864583 92.34505208 230.39713542 94.265625 231.015625 C100.01260945 233.95430989 103.93045183 239.95349519 107.81640625 244.97265625 C108.36619141 245.64619141 108.91597656 246.31972656 109.48242188 247.01367188 C113.28179056 251.9457716 114.2389787 254.94184066 113.50390625 261.16015625 C112.2540248 264.0348836 111.24922041 265.60117063 108.75390625 267.47265625 C105.52959434 268.45786267 102.85446421 268.45931321 99.50390625 268.16015625 C98.16115456 267.17283883 96.82658352 266.17420882 95.50390625 265.16015625 C91.05874202 265.5273315 87.95054718 267.49698351 84.19140625 269.78515625 C68.06800428 279.27403809 49.9958175 286.12869539 31.50390625 289.16015625 C33.19501908 294.9051424 34.9548598 300.60361988 36.953125 306.25 C37.50390625 308.16015625 37.50390625 308.16015625 37.50390625 311.16015625 C38.62249023 311.1741748 38.62249023 311.1741748 39.76367188 311.18847656 C43.17772775 311.24251655 46.5904628 311.32609929 50.00390625 311.41015625 C51.17695313 311.42433594 52.35 311.43851562 53.55859375 311.453125 C61.5554107 311.67775469 67.38684019 312.60739848 73.52734375 317.90625 C78.37723096 323.97561752 79.50390625 327.00997834 79.50390625 335.16015625 C31.65390625 335.16015625 -16.19609375 335.16015625 -65.49609375 335.16015625 C-65.49609375 327.83765432 -64.76768243 324.79088678 -60.49609375 319.16015625 C-54.98668859 314.02590514 -50.6313981 312.08299394 -43.078125 311.84375 C-41.82451172 311.80185547 -40.57089844 311.75996094 -39.27929688 311.71679688 C-37.96896484 311.67748047 -36.65863281 311.63816406 -35.30859375 311.59765625 C-33.97329397 311.55444633 -32.63800723 311.51083125 -31.30273438 311.46679688 C-28.03396078 311.36059123 -24.76511042 311.25854628 -21.49609375 311.16015625 C-21.30490967 310.49628906 -21.11372559 309.83242188 -20.91674805 309.1484375 C-19.61041564 304.68957634 -18.32363636 300.3600918 -16.30859375 296.16015625 C-14.87355377 293.28023897 -14.87355377 293.28023897 -14.49609375 290.16015625 C-23.1902221 287.82629101 -23.1902221 287.82629101 -31.59375 289.26953125 C-33.16801779 290.98387887 -33.16801779 290.98387887 -34.6640625 292.96484375 C-47.83340484 308.74559087 -73.97097138 316.72062888 -93.49609375 319.16015625 C-109.47396178 320.35059682 -124.36955714 319.51147505 -139.49609375 314.16015625 C-140.16527832 313.93553711 -140.83446289 313.71091797 -141.52392578 313.47949219 C-166.19979019 305.10177099 -186.82703294 286.67994866 -199.49609375 264.16015625 C-200.3159375 262.70802734 -200.3159375 262.70802734 -201.15234375 261.2265625 C-205.10048346 253.80365697 -207.72430274 246.16858026 -209.95996094 238.09472656 C-210.44408639 236.34781851 -210.95669122 234.60886396 -211.47265625 232.87109375 C-213.46557656 225.21604471 -213.77180328 217.85667363 -213.80859375 209.97265625 C-213.81415283 208.97492188 -213.81971191 207.9771875 -213.82543945 206.94921875 C-213.7598875 200.16319083 -212.92517345 193.78838895 -211.49609375 187.16015625 C-211.23570312 185.93167969 -210.9753125 184.70320312 -210.70703125 183.4375 C-205.586265 162.9783638 -196.06194977 146.39041974 -181.49609375 131.16015625 C-180.82320312 130.4125 -180.1503125 129.66484375 -179.45703125 128.89453125 C-165.59403463 114.04502925 -145.37921241 104.04439457 -125.80859375 99.53515625 C-124.86564453 99.30570312 -123.92269531 99.07625 -122.95117188 98.83984375 C-116.69945875 97.39614917 -110.90603224 96.86112488 -104.49609375 97.16015625 C-104.31046875 95.61328125 -104.31046875 95.61328125 -104.12109375 94.03515625 C-103.55719561 90.53898779 -102.70927316 87.47617998 -101.49609375 84.16015625 C-95.70670778 88.13833767 -90.84925895 92.69411748 -85.94140625 97.70703125 C-81.91497118 101.74633033 -77.5828004 105.40330701 -73.22265625 109.07421875 C-72.48789063 109.70070313 -71.753125 110.3271875 -70.99609375 110.97265625 C-69.990625 111.81763672 -69.990625 111.81763672 -68.96484375 112.6796875 C-67.49609375 114.16015625 -67.49609375 114.16015625 -67.49609375 116.16015625 C-78.32395626 119.87720842 -89.17431804 123.4521489 -100.18359375 126.59765625 C-101.53650513 126.9855835 -101.53650513 126.9855835 -102.91674805 127.38134766 C-109.23036032 129.16015625 -109.23036032 129.16015625 -111.49609375 129.16015625 C-111.16609375 126.52015625 -110.83609375 123.88015625 -110.49609375 121.16015625 C-134.80995399 124.36823503 -154.1465834 132.56757045 -171.49609375 150.16015625 C-172.25792969 150.91167969 -173.01976562 151.66320312 -173.8046875 152.4375 C-182.46386094 161.50178097 -188.38985764 173.41135257 -192.49609375 185.16015625 C-192.88925781 186.2790625 -193.28242188 187.39796875 -193.6875 188.55078125 C-200.84256294 212.38437069 -197.01988509 238.31051235 -185.73046875 260.18359375 C-173.27977581 282.98767038 -152.46210854 299.79838266 -127.49609375 307.16015625 C-126.57054687 307.45792969 -125.645 307.75570313 -124.69140625 308.0625 C-107.34878397 312.75495515 -86.40670708 312.24082332 -69.49609375 306.16015625 C-67.92794922 305.59941406 -67.92794922 305.59941406 -66.328125 305.02734375 C-55.12313794 300.64971621 -44.67267434 294.96143536 -35.49609375 287.16015625 C-41.13385673 284.69041914 -46.83941303 282.5113061 -52.62304688 280.41015625 C-56.72620913 278.89659784 -60.61412848 277.19500856 -64.49609375 275.16015625 C-64.16609375 276.48015625 -63.83609375 277.80015625 -63.49609375 279.16015625 C-64.15609375 279.16015625 -64.81609375 279.16015625 -65.49609375 279.16015625 C-67.49609375 276.16015625 -67.49609375 276.16015625 -67.49609375 273.16015625 C-68.71232422 272.83724609 -68.71232422 272.83724609 -69.953125 272.5078125 C-74.48741337 270.78308318 -78.1872511 268.31742451 -82.18359375 265.59765625 C-82.9823291 265.05753906 -83.78106445 264.51742188 -84.60400391 263.9609375 C-95.67859238 256.3910224 -105.18713433 247.76154371 -114.49609375 238.16015625 C-114.82609375 239.48015625 -115.15609375 240.80015625 -115.49609375 242.16015625 C-128.36609375 242.16015625 -141.23609375 242.16015625 -154.49609375 242.16015625 C-152.6874868 231.30851456 -146.8594294 225.02947157 -139.49609375 217.16015625 C-137.79562638 215.18478653 -136.14380669 213.1799334 -134.49609375 211.16015625 C-134.85703125 210.46148437 -135.21796875 209.7628125 -135.58984375 209.04296875 C-136.05390625 208.13289062 -136.51796875 207.2228125 -136.99609375 206.28515625 C-137.46015625 205.38023437 -137.92421875 204.4753125 -138.40234375 203.54296875 C-139.49609375 201.16015625 -139.49609375 201.16015625 -139.49609375 199.16015625 C-141.80609375 199.16015625 -144.11609375 199.16015625 -146.49609375 199.16015625 C-146.02735063 192.910248 -143.31134566 187.96160791 -138.90234375 183.57421875 C-134.18899424 179.57711352 -131.1953105 178.97838715 -125.18359375 178.97265625 C-123.20939453 178.95138672 -123.20939453 178.95138672 -121.1953125 178.9296875 C-117.70473411 179.14715754 -115.67304174 179.88201327 -112.49609375 181.16015625 C-106.15323177 180.92010616 -100.28045302 179.46607959 -95.49609375 175.16015625 C-92.38431039 170.80365954 -91.93756897 166.70786162 -92.0546875 161.484375 C-92.71355709 158.0151059 -94.96836233 156.49344679 -97.49609375 154.16015625 C-97.42247215 150.40545474 -97.16768214 148.83174464 -94.49609375 146.16015625 C-87.80624937 146.26634426 -83.14474738 148.09705824 -77.16015625 150.94921875 C-68.01167053 155.10762135 -55.49013794 156.00858221 -45.76171875 153.4375 C-41.61329243 151.51144492 -38.9905658 148.92040073 -36.49609375 145.16015625 C-33.0286115 127.07971306 -43.72834596 108.8474007 -50.82495117 92.88061523 C-60.07887447 72.04694167 -60.07887447 72.04694167 -59.87109375 63.66015625 C-59.85820312 62.49484375 -59.8453125 61.32953125 -59.83203125 60.12890625 C-59.49609375 57.16015625 -59.49609375 57.16015625 -57.49609375 54.16015625 C-53.72475079 53.79041674 -50.87161578 54.04461101 -47.24609375 55.16015625 C-41.69564791 56.64027514 -35.80469428 57.50277675 -30.33984375 55.28515625 C-25.93566893 52.44856908 -23.98270779 49.23213357 -22.49609375 44.16015625 C-21.76055818 37.41774689 -23.32504512 32.08757021 -27.3125 26.7109375 C-32.65463533 20.47048245 -38.6882316 15.71569765 -45.49609375 11.16015625 C-44.49609375 9.16015625 -44.49609375 9.16015625 -41.64453125 7.9765625 C-27.95344335 3.4270395 -14.44722602 0.66182823 0 0 Z " fill="#28A9E0" transform="translate(275.49609375,70.83984375)"/>
<path d="M0 0 C5.78938597 3.97818142 10.6468348 8.53396123 15.5546875 13.546875 C19.58112257 17.58617408 23.91329335 21.24315076 28.2734375 24.9140625 C29.37558594 25.85378906 29.37558594 25.85378906 30.5 26.8125 C31.50546875 27.65748047 31.50546875 27.65748047 32.53125 28.51953125 C34 30 34 30 34 32 C23.17213749 35.71705217 12.32177571 39.29199265 1.3125 42.4375 C0.41055908 42.69611816 -0.49138184 42.95473633 -1.4206543 43.22119141 C-7.73426657 45 -7.73426657 45 -10 45 C-9.67 42.36 -9.34 39.72 -9 37 C-33.31386024 40.20807878 -52.65048965 48.4074142 -70 66 C-70.76183594 66.75152344 -71.52367187 67.50304687 -72.30859375 68.27734375 C-80.96776719 77.34162472 -86.89376389 89.25119632 -91 101 C-91.39316406 102.11890625 -91.78632812 103.2378125 -92.19140625 104.390625 C-99.34646919 128.22421444 -95.52379134 154.1503561 -84.234375 176.0234375 C-71.78368206 198.82751413 -50.96601479 215.63822641 -26 223 C-25.07445312 223.29777344 -24.14890625 223.59554687 -23.1953125 223.90234375 C-5.85269022 228.5947989 15.08938667 228.08066707 32 222 C33.04542969 221.62617188 34.09085938 221.25234375 35.16796875 220.8671875 C46.37295581 216.48955996 56.82341941 210.80127911 66 203 C60.36223702 200.53026289 54.65668072 198.35114985 48.87304688 196.25 C44.76988462 194.73644159 40.88196527 193.03485231 37 191 C37.33 192.32 37.66 193.64 38 195 C37.34 195 36.68 195 36 195 C34 192 34 192 34 189 C32.78376953 188.67708984 32.78376953 188.67708984 31.54296875 188.34765625 C27.00868038 186.62292693 23.30884265 184.15726826 19.3125 181.4375 C18.51376465 180.89738281 17.7150293 180.35726562 16.89208984 179.80078125 C5.81750137 172.23086615 -3.69104058 163.60138746 -13 154 C-13.33 155.32 -13.66 156.64 -14 158 C-26.87 158 -39.74 158 -53 158 C-51.19139305 147.14835831 -45.36333565 140.86931532 -38 133 C-36.29953263 131.02463028 -34.64771294 129.01977715 -33 127 C-33.3609375 126.30132812 -33.721875 125.60265625 -34.09375 124.8828125 C-34.78984375 123.51769531 -34.78984375 123.51769531 -35.5 122.125 C-36.19609375 120.76761719 -36.19609375 120.76761719 -36.90625 119.3828125 C-38 117 -38 117 -38 115 C-40.31 115 -42.62 115 -45 115 C-44.53125688 108.75009175 -41.81525191 103.80145166 -37.40625 99.4140625 C-30.84018824 93.84578464 -24.23491857 94.36986472 -16 95 C-12.41790586 96.09044822 -9.89163273 97.57641011 -7.84765625 100.83984375 C-5.37729191 107.13528837 -7.17139542 113.78274442 -9 120 C-8.79322977 124.44555992 -7.13468075 126.01009366 -4 129 C3.45878953 119.92981895 10.78211329 110.78194976 17.86010742 101.41040039 C18.37420166 100.73098389 18.8882959 100.05156738 19.41796875 99.3515625 C19.86938232 98.75166504 20.3207959 98.15176758 20.78588867 97.53369141 C22 96 22 96 24 94 C26.6015625 93.8046875 26.6015625 93.8046875 29.625 93.875 C30.62789062 93.89304687 31.63078125 93.91109375 32.6640625 93.9296875 C33.43492187 93.95289063 34.20578125 93.97609375 35 94 C33.18745723 107.03488206 31.23288124 120.03028556 29 133 C30.65 133 32.3 133 34 133 C33.67 137.29 33.34 141.58 33 146 C30.69 146 28.38 146 26 146 C39.43848273 160.21138248 64.70196793 172.13075216 84.33203125 173.1171875 C86.22174635 173.12380647 88.11152148 173.06867195 90 173 C96.57420804 159.36947532 100.33171651 145.17003525 101 130 C101.33 130 101.66 130 102 130 C103.48152412 149.58904112 96.96154598 166.91644285 88 184 C121.0465642 184.64993243 152.59499512 181.93666992 181 163 C181.13076643 160.2539049 181.14561316 157.72350533 181 155 C181 154.01 181 153.02 181 152 C180.06800781 152.58007812 179.13601563 153.16015625 178.17578125 153.7578125 C167.40968034 160.3879209 156.63581024 165.9886997 144.5625 169.875 C143.90000244 170.0905957 143.23750488 170.30619141 142.55493164 170.52832031 C138.61188818 171.73387499 135.08979606 172.74778268 131 172 C127.08348426 167.78876318 126.28732245 163.77030185 126.375 158.1875 C126.38047852 157.48262451 126.38595703 156.77774902 126.39160156 156.05151367 C126.7076282 148.1590209 130.18439281 144.04389967 135.3125 138.5 C137.82418376 134.77898703 138.53915513 131.46624452 138 127 C135.35528783 121.14385163 130.76031985 116.38524381 126.41796875 111.7265625 C123.87763529 108.6333741 123.4504299 105.11685165 123.55859375 101.1796875 C124.4976161 96.54274526 127.367775 93.84211659 131 91 C148.81654154 80.3822756 167.07692678 80.62154977 187.23535156 81.06591797 C190.08964299 81.1331883 190.08964299 81.1331883 193 80 C196.14462196 74.4445012 198.43422046 68.57663548 200.75390625 62.63671875 C201.93860014 60.12992133 202.81644098 58.67536497 205 57 C208.64613756 56.44515298 210.36417637 56.57137768 213.4453125 58.6484375 C218.10589466 62.93845349 220.90956343 68.53754497 224 74 C224.57105469 74.97195312 225.14210938 75.94390625 225.73046875 76.9453125 C228.08369687 81.37417615 229.59042266 84.70858053 228.3125 89.6875 C227.60559636 91.48480965 226.82338879 93.25298379 226 95 C225.72397949 95.60005859 225.44795898 96.20011719 225.16357422 96.81835938 C216.45606085 115.59581768 204.80735633 130.64362914 190 145 C191.92057292 145.61848958 193.84114583 146.23697917 195.76171875 146.85546875 C201.5087032 149.79415364 205.42654558 155.79333894 209.3125 160.8125 C209.86228516 161.48603516 210.41207031 162.15957031 210.97851562 162.85351562 C214.77788431 167.78561535 215.73507245 170.78168441 215 177 C213.75011855 179.87472735 212.74531416 181.44101438 210.25 183.3125 C207.02568809 184.29770642 204.35055796 184.29915696 201 184 C199.65724831 183.01268258 198.32267727 182.01405257 197 181 C192.55483577 181.36717525 189.44664093 183.33682726 185.6875 185.625 C169.56409803 195.11388184 151.49191125 201.96853914 133 205 C134.69111283 210.74498615 136.45095355 216.44346363 138.44921875 222.08984375 C139 224 139 224 139 227 C140.11858398 227.01401855 140.11858398 227.01401855 141.25976562 227.02832031 C144.6738215 227.0823603 148.08655655 227.16594304 151.5 227.25 C152.67304688 227.26417969 153.84609375 227.27835938 155.0546875 227.29296875 C163.05150445 227.51759844 168.88293394 228.44724223 175.0234375 233.74609375 C179.87332471 239.81546127 181 242.84982209 181 251 C133.15 251 85.3 251 36 251 C36 243.67749807 36.72841132 240.63073053 41 235 C46.50940516 229.86574889 50.86469565 227.92283769 58.41796875 227.68359375 C60.29838867 227.62075195 60.29838867 227.62075195 62.21679688 227.55664062 C63.52712891 227.51732422 64.83746094 227.47800781 66.1875 227.4375 C67.52279978 227.39429008 68.85808652 227.350675 70.19335938 227.30664062 C73.46213297 227.20043498 76.73098333 227.09839003 80 227 C80.19118408 226.33613281 80.38236816 225.67226563 80.5793457 224.98828125 C81.88567811 220.52942009 83.17245739 216.19993555 85.1875 212 C86.62253998 209.12008272 86.62253998 209.12008272 87 206 C78.30587165 203.66613476 78.30587165 203.66613476 69.90234375 205.109375 C68.32807596 206.82372262 68.32807596 206.82372262 66.83203125 208.8046875 C53.66268891 224.58543462 27.52512237 232.56047263 8 235 C-7.97786803 236.19044057 -22.87346339 235.3513188 -38 230 C-38.66918457 229.77538086 -39.33836914 229.55076172 -40.02783203 229.31933594 C-64.70369644 220.94161474 -85.33093919 202.51979241 -98 180 C-98.81984375 178.54787109 -98.81984375 178.54787109 -99.65625 177.06640625 C-103.60438971 169.64350072 -106.22820899 162.00842401 -108.46386719 153.93457031 C-108.94799264 152.18766226 -109.46059747 150.44870771 -109.9765625 148.7109375 C-111.96948281 141.05588846 -112.27570953 133.69651738 -112.3125 125.8125 C-112.31805908 124.81476563 -112.32361816 123.81703125 -112.3293457 122.7890625 C-112.26379375 116.00303458 -111.4290797 109.6282327 -110 103 C-109.73960938 101.77152344 -109.47921875 100.54304688 -109.2109375 99.27734375 C-104.09017125 78.81820755 -94.56585602 62.23026349 -80 47 C-78.99066406 45.87851563 -78.99066406 45.87851563 -77.9609375 44.734375 C-64.09794088 29.884873 -43.88311866 19.88423832 -24.3125 15.375 C-23.36955078 15.14554688 -22.42660156 14.91609375 -21.45507812 14.6796875 C-15.203365 13.23599292 -9.40993849 12.70096863 -3 13 C-2.814375 11.453125 -2.814375 11.453125 -2.625 9.875 C-2.06110186 6.37883154 -1.21317941 3.31602373 0 0 Z " fill="#F6941F" transform="translate(174,155)"/>
<path d="M0 0 C9.63421227 2.56695706 15.99022484 14.87597128 21.31640625 22.6171875 C22.79472885 25.57383269 22.37673408 28.35948487 22.31640625 31.6171875 C22.97125 31.18148437 23.62609375 30.74578125 24.30078125 30.296875 C27.27775415 28.35427404 30.28557855 26.47467292 33.31640625 24.6171875 C34.35796875 23.97652344 35.39953125 23.33585937 36.47265625 22.67578125 C39.3988834 21.02423638 42.11308466 19.63264967 45.31640625 18.6171875 C48.89228873 19.66529098 49.74298127 20.20212713 52.31640625 22.6171875 C53.11949219 23.28105469 53.92257813 23.94492188 54.75 24.62890625 C62.77139861 31.458418 69.48785918 38.16026388 70.69140625 48.9921875 C70.07282609 54.97179575 67.88145863 59.67931841 63.25390625 63.6171875 C58.5962579 66.59207258 53.64169295 66.2395213 48.31640625 65.6171875 C45.97164074 64.9919167 43.63579832 64.3308466 41.31640625 63.6171875 C38.98424781 63.54315072 36.64779837 63.52202864 34.31640625 63.6171875 C31.37582563 69.49834875 32.66656239 77.35995599 34.421875 83.45703125 C35.82176633 87.24540647 37.41283286 90.95050427 39.02685547 94.65185547 C41.46582877 100.2602935 43.8211036 105.90445673 46.19058228 111.54251099 C47.04825527 113.57419094 47.91504836 115.60175679 48.78393555 117.62866211 C53.89321116 129.60496155 58.1514905 140.36547257 56.31640625 153.6171875 C53.9938268 158.69885956 50.37455325 160.93773781 45.26782227 163.01953125 C41.87789055 164.0577588 38.58751716 164.06138575 35.06640625 163.9921875 C34.31915283 163.98276123 33.57189941 163.97333496 32.80200195 163.96362305 C23.03506382 163.69913913 14.95195345 160.68055789 6.140625 156.60546875 C2.96467015 155.49410419 0.65573743 155.21684455 -2.68359375 155.6171875 C-4.94001306 158.35551552 -4.94001306 158.35551552 -4.55859375 161.0546875 C-3.88935408 163.75172766 -3.88935408 163.75172766 -1.62109375 165.3046875 C1.06342439 168.5087898 0.94478616 170.92633006 0.7578125 175.015625 C-0.10450041 180.09792944 -2.34659685 183.86443983 -6.48046875 186.96484375 C-11.14034218 189.56505313 -16.33049431 190.91905401 -21.68359375 190.6171875 C-22.27914062 190.2975 -22.8746875 189.9778125 -23.48828125 189.6484375 C-26.6877182 188.14549915 -29.54306243 188.27727264 -33.05859375 188.2421875 C-34.34507812 188.21382812 -35.6315625 188.18546875 -36.95703125 188.15625 C-42.18074046 188.80236917 -45.15214672 191.08574047 -48.80859375 194.7421875 C-51.44068053 198.7780539 -53.03643402 203.10502121 -54.68359375 207.6171875 C-52.37359375 207.6171875 -50.06359375 207.6171875 -47.68359375 207.6171875 C-45.70359375 211.9071875 -43.72359375 216.1971875 -41.68359375 220.6171875 C-42.48023438 221.36742187 -43.276875 222.11765625 -44.09765625 222.890625 C-52.9960008 231.42293835 -58.29273498 238.90823078 -62.68359375 250.6171875 C-49.81359375 250.6171875 -36.94359375 250.6171875 -23.68359375 250.6171875 C-23.68359375 248.9671875 -23.68359375 247.3171875 -23.68359375 245.6171875 C-19.78716793 248.8503919 -16.16680633 252.12979909 -12.68359375 255.8046875 C-2.24402818 266.33272396 11.07932866 274.99864871 24.31640625 281.6171875 C25.04334529 283.59607711 25.71456876 285.59673308 26.31640625 287.6171875 C26.97640625 287.6171875 27.63640625 287.6171875 28.31640625 287.6171875 C27.98640625 286.2971875 27.65640625 284.9771875 27.31640625 283.6171875 C31.99237348 285.13942605 36.59314536 286.81610695 41.19140625 288.5546875 C41.86042969 288.80669922 42.52945313 289.05871094 43.21875 289.31835938 C44.56362808 289.82495603 45.90835627 290.33195076 47.25292969 290.83935547 C50.60571297 292.1031945 53.96115845 293.35990784 57.31640625 294.6171875 C44.62705789 308.57547069 22.23391827 318.73754604 3.40063477 319.77832031 C-29.93427728 320.2150333 -55.39903485 313.03921963 -79.93359375 289.6796875 C-92.03063338 277.14007325 -99.32420815 261.27747512 -103.68359375 244.6171875 C-103.9607019 243.60615967 -103.9607019 243.60615967 -104.2434082 242.57470703 C-110.16540806 219.12517741 -104.50899354 194.21523441 -92.68359375 173.6171875 C-79.61354348 152.98796637 -59.42606459 137.98071119 -35.9453125 131.29296875 C-30.23704401 130.11029755 -24.5001611 129.79159732 -18.68359375 129.6171875 C-19.17859375 133.5771875 -19.17859375 133.5771875 -19.68359375 137.6171875 C-18.53503906 137.23046875 -17.38648438 136.84375 -16.203125 136.4453125 C-7.06539377 133.37801227 2.08746763 130.40071456 11.31640625 127.6171875 C12.75886719 127.16666016 12.75886719 127.16666016 14.23046875 126.70703125 C15.12507813 126.42988281 16.0196875 126.15273437 16.94140625 125.8671875 C17.71742188 125.62484375 18.4934375 125.3825 19.29296875 125.1328125 C21.31640625 124.6171875 21.31640625 124.6171875 24.31640625 124.6171875 C24.31640625 123.9571875 24.31640625 123.2971875 24.31640625 122.6171875 C23.754375 122.38386719 23.19234375 122.15054688 22.61328125 121.91015625 C19.74906483 120.29781674 17.84388604 118.2978313 15.56640625 115.9296875 C11.98785141 112.27799432 8.35818462 108.81197001 4.4765625 105.48828125 C1.71564173 103.09681462 -0.984694 100.64053799 -3.68359375 98.1796875 C-4.63234375 97.31472656 -5.58109375 96.44976562 -6.55859375 95.55859375 C-7.25984375 94.91792969 -7.96109375 94.27726562 -8.68359375 93.6171875 C-9.16557838 94.86610364 -9.64405052 96.11637558 -10.12109375 97.3671875 C-10.38792969 98.06328125 -10.65476562 98.759375 -10.9296875 99.4765625 C-11.64506068 101.50777753 -12.19725027 103.5207166 -12.68359375 105.6171875 C-13.56917969 105.71515625 -14.45476562 105.813125 -15.3671875 105.9140625 C-32.35354608 107.96444501 -47.33506479 111.94292302 -62.68359375 119.6171875 C-63.0289151 112.71898252 -61.77945351 106.7189356 -60.05859375 100.0546875 C-59.78644043 98.99056641 -59.51428711 97.92644531 -59.23388672 96.83007812 C-57.01930075 88.42103352 -54.34191895 80.52303932 -50.68359375 72.6171875 C-50.38195312 71.96314941 -50.0803125 71.30911133 -49.76953125 70.63525391 C-41.14382129 52.13468391 -29.02983823 33.97379084 -13.3515625 20.6328125 C-11.06641096 17.87136474 -11.42889195 16.2537454 -11.74609375 12.7421875 C-11.94472954 5.97201777 -11.94472954 5.97201777 -9.74609375 2.8671875 C-6.22268959 0.27856403 -4.30560456 -0.35466265 0 0 Z " fill="#8DC540" transform="translate(183.68359375,62.3828125)"/>
<path d="M0 0 C5.78938597 3.97818142 10.6468348 8.53396123 15.5546875 13.546875 C19.58112257 17.58617408 23.91329335 21.24315076 28.2734375 24.9140625 C29.37558594 25.85378906 29.37558594 25.85378906 30.5 26.8125 C31.50546875 27.65748047 31.50546875 27.65748047 32.53125 28.51953125 C34 30 34 30 34 32 C23.17213749 35.71705217 12.32177571 39.29199265 1.3125 42.4375 C0.41055908 42.69611816 -0.49138184 42.95473633 -1.4206543 43.22119141 C-7.73426657 45 -7.73426657 45 -10 45 C-9.67 42.36 -9.34 39.72 -9 37 C-33.31386024 40.20807878 -52.65048965 48.4074142 -70 66 C-70.76183594 66.75152344 -71.52367187 67.50304687 -72.30859375 68.27734375 C-80.96776719 77.34162472 -86.89376389 89.25119632 -91 101 C-91.39316406 102.11890625 -91.78632812 103.2378125 -92.19140625 104.390625 C-99.34646919 128.22421444 -95.52379134 154.1503561 -84.234375 176.0234375 C-71.78368206 198.82751413 -50.96601479 215.63822641 -26 223 C-25.07445312 223.29777344 -24.14890625 223.59554687 -23.1953125 223.90234375 C-5.85269022 228.5947989 15.08938667 228.08066707 32 222 C33.04542969 221.62617188 34.09085938 221.25234375 35.16796875 220.8671875 C46.37295581 216.48955996 56.82341941 210.80127911 66 203 C60.36223702 200.53026289 54.65668072 198.35114985 48.87304688 196.25 C44.76988462 194.73644159 40.88196527 193.03485231 37 191 C37.33 192.32 37.66 193.64 38 195 C37.34 195 36.68 195 36 195 C34 192 34 192 34 189 C32.78376953 188.67708984 32.78376953 188.67708984 31.54296875 188.34765625 C27.00868038 186.62292693 23.30884265 184.15726826 19.3125 181.4375 C18.51376465 180.89738281 17.7150293 180.35726562 16.89208984 179.80078125 C5.81750137 172.23086615 -3.69104058 163.60138746 -13 154 C-13.33 155.32 -13.66 156.64 -14 158 C-26.87 158 -39.74 158 -53 158 C-51.19139305 147.14835831 -45.36333565 140.86931532 -38 133 C-36.29953263 131.02463028 -34.64771294 129.01977715 -33 127 C-33.3609375 126.30132812 -33.721875 125.60265625 -34.09375 124.8828125 C-34.78984375 123.51769531 -34.78984375 123.51769531 -35.5 122.125 C-36.19609375 120.76761719 -36.19609375 120.76761719 -36.90625 119.3828125 C-38 117 -38 117 -38 115 C-40.31 115 -42.62 115 -45 115 C-44.53125688 108.75009175 -41.81525191 103.80145166 -37.40625 99.4140625 C-30.84018824 93.84578464 -24.23491857 94.36986472 -16 95 C-12.41790586 96.09044822 -9.89163273 97.57641011 -7.84765625 100.83984375 C-5.37729191 107.13528837 -7.17139542 113.78274442 -9 120 C-8.79322977 124.44555992 -7.13468075 126.01009366 -4 129 C3.45878953 119.92981895 10.78211329 110.78194976 17.86010742 101.41040039 C18.37420166 100.73098389 18.8882959 100.05156738 19.41796875 99.3515625 C19.86938232 98.75166504 20.3207959 98.15176758 20.78588867 97.53369141 C22 96 22 96 24 94 C26.6015625 93.8046875 26.6015625 93.8046875 29.625 93.875 C30.62789062 93.89304687 31.63078125 93.91109375 32.6640625 93.9296875 C33.43492187 93.95289063 34.20578125 93.97609375 35 94 C33.18745723 107.03488206 31.23288124 120.03028556 29 133 C30.65 133 32.3 133 34 133 C33.67 137.29 33.34 141.58 33 146 C30.69 146 28.38 146 26 146 C39.43848273 160.21138248 64.70196793 172.13075216 84.33203125 173.1171875 C86.22174635 173.12380647 88.11152148 173.06867195 90 173 C96.57420804 159.36947532 100.33171651 145.17003525 101 130 C101.33 130 101.66 130 102 130 C103.82855967 154.17762234 94.02476681 178.84168915 78.40234375 197.0859375 C75.69535677 200.15446587 72.87312084 203.08641267 70 206 C69.20851562 206.804375 68.41703125 207.60875 67.6015625 208.4375 C45.88854451 229.21274645 17.07296217 235.6920449 -12.06640625 235.34375 C-21.22650928 235.04378756 -29.40215531 233.04166176 -38 230 C-38.66918457 229.77538086 -39.33836914 229.55076172 -40.02783203 229.31933594 C-64.70369644 220.94161474 -85.33093919 202.51979241 -98 180 C-98.81984375 178.54787109 -98.81984375 178.54787109 -99.65625 177.06640625 C-103.60438971 169.64350072 -106.22820899 162.00842401 -108.46386719 153.93457031 C-108.94799264 152.18766226 -109.46059747 150.44870771 -109.9765625 148.7109375 C-111.96948281 141.05588846 -112.27570953 133.69651738 -112.3125 125.8125 C-112.31805908 124.81476563 -112.32361816 123.81703125 -112.3293457 122.7890625 C-112.26379375 116.00303458 -111.4290797 109.6282327 -110 103 C-109.73960938 101.77152344 -109.47921875 100.54304688 -109.2109375 99.27734375 C-104.09017125 78.81820755 -94.56585602 62.23026349 -80 47 C-78.99066406 45.87851563 -78.99066406 45.87851563 -77.9609375 44.734375 C-64.09794088 29.884873 -43.88311866 19.88423832 -24.3125 15.375 C-23.36955078 15.14554688 -22.42660156 14.91609375 -21.45507812 14.6796875 C-15.203365 13.23599292 -9.40993849 12.70096863 -3 13 C-2.814375 11.453125 -2.814375 11.453125 -2.625 9.875 C-2.06110186 6.37883154 -1.21317941 3.31602373 0 0 Z " fill="#E60415" transform="translate(174,155)"/>
<path d="M0 0 C0.06993164 0.64324219 0.13986328 1.28648437 0.21191406 1.94921875 C1.91922037 17.3424242 4.03795432 31.8767768 9.3125 46.5 C11.46454254 52.67871588 11.07121218 56.78636347 9 63 C11.31 63 13.62 63 16 63 C17.98 67.29 19.96 71.58 22 76 C21.20335937 76.75023437 20.40671875 77.50046875 19.5859375 78.2734375 C10.68759295 86.80575085 5.39085877 94.29104328 1 106 C13.87 106 26.74 106 40 106 C40 104.35 40 102.7 40 101 C43.89642582 104.2332044 47.51678742 107.51261159 51 111.1875 C61.43956557 121.71553646 74.76292241 130.38146121 88 137 C88.72693904 138.97888961 89.39816251 140.97954558 90 143 C90.66 143 91.32 143 92 143 C91.67 141.68 91.34 140.36 91 139 C95.67596723 140.52223855 100.27673911 142.19891945 104.875 143.9375 C105.54402344 144.18951172 106.21304688 144.44152344 106.90234375 144.70117188 C108.24722183 145.20776853 109.59195002 145.71476326 110.93652344 146.22216797 C114.28930672 147.486007 117.6447522 148.74272034 121 150 C108.31065164 163.95828319 85.91751202 174.12035854 67.08422852 175.16113281 C33.74931647 175.5978458 8.2845589 168.42203213 -16.25 145.0625 C-28.34703963 132.52288575 -35.6406144 116.66028762 -40 100 C-40.18473877 99.32598145 -40.36947754 98.65196289 -40.55981445 97.95751953 C-46.48181431 74.50798991 -40.82539979 49.59804691 -29 29 C-24.65885054 22.14811112 -9.52166166 0 0 0 Z " fill="#FEFCFC" transform="translate(120,207)"/>
<path d="M0 0 C3.91568079 0.54819531 5.23052906 1.77317048 8.125 4.4375 C11.12308107 8.57689603 13.61079424 12.99355315 16.125 17.4375 C16.69605469 18.40945312 17.26710938 19.38140625 17.85546875 20.3828125 C20.20869687 24.81167615 21.71542266 28.14608053 20.4375 33.125 C19.73059636 34.92230965 18.94838879 36.69048379 18.125 38.4375 C17.84897949 39.03755859 17.57295898 39.63761719 17.28857422 40.25585938 C9.44141737 57.17798792 -0.56893044 71.54651152 -13.97729492 84.55444336 C-16.78518168 87.21888722 -16.78518168 87.21888722 -18.875 90.4375 C-20.5561062 91.42577407 -22.24100717 92.40847403 -23.94921875 93.34912109 C-26.86045829 94.99444385 -29.59812859 96.88883499 -32.375 98.75 C-42.13878135 105.11208728 -52.34549605 109.81549144 -63.4375 113.375 C-64.41952393 113.69259277 -64.41952393 113.69259277 -65.42138672 114.01660156 C-69.33000768 115.19895689 -72.82543545 116.17017016 -76.875 115.4375 C-80.79151574 111.22626318 -81.58767755 107.20780185 -81.5 101.625 C-81.49452148 100.92012451 -81.48904297 100.21524902 -81.48339844 99.48901367 C-81.1673718 91.5965209 -77.69060719 87.48139967 -72.5625 81.9375 C-70.05081624 78.21648703 -69.33584487 74.90374452 -69.875 70.4375 C-72.51971217 64.58135163 -77.11468015 59.82274381 -81.45703125 55.1640625 C-83.99736471 52.0708741 -84.4245701 48.55435165 -84.31640625 44.6171875 C-83.3773839 39.98024526 -80.507225 37.27961659 -76.875 34.4375 C-59.05845846 23.8197756 -40.79807322 24.05904977 -20.63964844 24.50341797 C-17.78535701 24.5706883 -17.78535701 24.5706883 -14.875 23.4375 C-11.73037804 17.8820012 -9.44077954 12.01413548 -7.12109375 6.07421875 C-5.32617551 2.27619426 -4.21596003 0.64155913 0 0 Z " fill="#8CC63F" transform="translate(381.875,211.5625)"/>
<path d="M0 0 C0.99773437 0.02320313 1.99546875 0.04640625 3.0234375 0.0703125 C4.02632813 0.08835938 5.02921875 0.10640625 6.0625 0.125 C6.83335937 0.14820313 7.60421875 0.17140625 8.3984375 0.1953125 C6.58589473 13.23019456 4.63131874 26.22559806 2.3984375 39.1953125 C4.0484375 39.1953125 5.6984375 39.1953125 7.3984375 39.1953125 C7.0684375 43.4853125 6.7384375 47.7753125 6.3984375 52.1953125 C4.0884375 52.1953125 1.7784375 52.1953125 -0.6015625 52.1953125 C8.98211886 62.3301889 21.58706167 68.18985862 34.3984375 73.1953125 C35.41550781 73.59621094 36.43257813 73.99710937 37.48046875 74.41015625 C45.89549605 77.46074754 54.58750925 78.81730002 63.3984375 80.1953125 C58.5344447 89.55808362 52.74511904 96.72487369 45.3984375 104.1953125 C44.70621094 104.97648437 44.01398438 105.75765625 43.30078125 106.5625 C42.67300781 107.10132813 42.04523438 107.64015625 41.3984375 108.1953125 C30.92261933 107.14773068 19.68089694 102.03143056 10.3984375 97.1953125 C10.7284375 98.5153125 11.0584375 99.8353125 11.3984375 101.1953125 C10.7384375 101.1953125 10.0784375 101.1953125 9.3984375 101.1953125 C7.3984375 98.1953125 7.3984375 98.1953125 7.3984375 95.1953125 C6.18220703 94.87240234 6.18220703 94.87240234 4.94140625 94.54296875 C0.40711788 92.81823943 -3.29271985 90.35258076 -7.2890625 87.6328125 C-8.48716553 86.82263672 -8.48716553 86.82263672 -9.70947266 85.99609375 C-20.78406113 78.42617865 -30.29260308 69.79669996 -39.6015625 60.1953125 C-39.9315625 61.5153125 -40.2615625 62.8353125 -40.6015625 64.1953125 C-53.4715625 64.1953125 -66.3415625 64.1953125 -79.6015625 64.1953125 C-77.79295555 53.34367081 -71.96489815 47.06462782 -64.6015625 39.1953125 C-62.90109513 37.21994278 -61.24927544 35.21508965 -59.6015625 33.1953125 C-59.9625 32.49664062 -60.3234375 31.79796875 -60.6953125 31.078125 C-61.159375 30.16804688 -61.6234375 29.25796875 -62.1015625 28.3203125 C-62.565625 27.41539062 -63.0296875 26.51046875 -63.5078125 25.578125 C-64.6015625 23.1953125 -64.6015625 23.1953125 -64.6015625 21.1953125 C-66.9115625 21.1953125 -69.2215625 21.1953125 -71.6015625 21.1953125 C-71.13281938 14.94540425 -68.41681441 9.99676416 -64.0078125 5.609375 C-57.44175074 0.04109714 -50.83648107 0.56517722 -42.6015625 1.1953125 C-39.01946836 2.28576072 -36.49319523 3.77172261 -34.44921875 7.03515625 C-31.97885441 13.33060087 -33.77295792 19.97805692 -35.6015625 26.1953125 C-35.39479227 30.64087242 -33.73624325 32.20540616 -30.6015625 35.1953125 C-23.14277297 26.12513145 -15.81944921 16.97726226 -8.74145508 7.60571289 C-8.22736084 6.92629639 -7.7132666 6.24687988 -7.18359375 5.546875 C-6.73218018 4.94697754 -6.2807666 4.34708008 -5.81567383 3.72900391 C-3.04464159 0.2285767 -3.04464159 0.2285767 0 0 Z " fill="#F69421" transform="translate(200.6015625,248.8046875)"/>
<path d="M0 0 C9.63421227 2.56695706 15.99022484 14.87597128 21.31640625 22.6171875 C22.74302844 25.47043187 22.62674493 27.45173299 22.31640625 30.6171875 C19.83246612 34.16086733 17.13692038 36.71774611 13.69140625 39.3046875 C-6.6167985 55.30148714 -22.67302045 79.19609159 -28.62109375 104.5390625 C-29.68359375 107.6171875 -29.68359375 107.6171875 -31.56640625 108.88671875 C-32.30632812 109.06589844 -33.04625 109.24507813 -33.80859375 109.4296875 C-34.62199219 109.64625 -35.43539062 109.8628125 -36.2734375 110.0859375 C-38.30596829 110.53395077 -40.33852775 110.98183398 -42.37109375 111.4296875 C-49.37372149 113.07736462 -56.27131884 116.41105005 -62.68359375 119.6171875 C-63.0289151 112.71898252 -61.77945351 106.7189356 -60.05859375 100.0546875 C-59.78644043 98.99056641 -59.51428711 97.92644531 -59.23388672 96.83007812 C-57.01930075 88.42103352 -54.34191895 80.52303932 -50.68359375 72.6171875 C-50.38195312 71.96314941 -50.0803125 71.30911133 -49.76953125 70.63525391 C-41.14382129 52.13468391 -29.02983823 33.97379084 -13.3515625 20.6328125 C-11.06641096 17.87136474 -11.42889195 16.2537454 -11.74609375 12.7421875 C-11.94472954 5.97201777 -11.94472954 5.97201777 -9.74609375 2.8671875 C-6.22268959 0.27856403 -4.30560456 -0.35466265 0 0 Z " fill="#F7951F" transform="translate(183.68359375,62.3828125)"/>
<path d="M0 0 C0.94336212 -0.0071553 1.88672424 -0.01431061 2.8586731 -0.02168274 C3.89195236 -0.02437164 4.92523163 -0.02706055 5.98982239 -0.02983093 C7.0795636 -0.03640213 8.16930481 -0.04297333 9.29206848 -0.04974365 C12.90592007 -0.0694874 16.51973006 -0.08114217 20.13362122 -0.09111023 C21.36756433 -0.09518576 22.60150745 -0.09926128 23.87284279 -0.10346031 C29.73119194 -0.12217446 35.58952473 -0.13673843 41.44789809 -0.14507228 C48.19788672 -0.15483427 54.94754651 -0.18112774 61.69741935 -0.22157317 C67.55308083 -0.25544917 73.40863267 -0.26722371 79.26438332 -0.27127647 C81.75023438 -0.27614546 84.23608186 -0.28776821 86.72186852 -0.30631447 C90.20468101 -0.33068262 93.68663809 -0.32974448 97.16950989 -0.32279968 C98.192668 -0.33560974 99.21582611 -0.3484198 100.26998901 -0.36161804 C107.49704318 -0.30920512 112.8901892 1.11571431 118.42658997 5.89326477 C123.27647717 11.96263229 124.40315247 14.99699311 124.40315247 23.14717102 C76.55315247 23.14717102 28.70315247 23.14717102 -20.59684753 23.14717102 C-20.59684753 15.82466909 -19.86843621 12.77790155 -15.59684753 7.14717102 C-10.81198161 2.68812281 -6.64995383 0.03465053 0 0 Z " fill="#F6941D" transform="translate(230.5968475341797,382.8528289794922)"/>
<path d="M0 0 C3.17003957 3.41577907 4.97554997 6.81542232 6.6875 11.125 C7.10386719 12.15882813 7.52023437 13.19265625 7.94921875 14.2578125 C8.67647735 16.15571413 9.35727645 18.07182934 10 20 C15.18125909 22.21179302 20.52725485 22.68086188 26.07421875 23.33984375 C29.11594536 24.02616124 30.27775938 24.43185322 32 27 C32 37.0443402 27.2979574 46.34830727 20.55078125 53.57421875 C18.24123533 55.6976048 17.01084115 55.99866324 13.83203125 56.390625 C8.80492877 55.87817826 6.49476907 53.8858658 2.6875 50.75 C-2.91008897 46.38375574 -8.09117749 42.97394929 -15 41 C-15.61738037 40.82275391 -16.23476074 40.64550781 -16.87084961 40.46289062 C-19.05421199 39.98821397 -20.88893133 39.92980029 -23.1171875 40.0078125 C-23.88933594 40.02457031 -24.66148437 40.04132813 -25.45703125 40.05859375 C-27.06143825 40.10265662 -28.66564786 40.15466542 -30.26953125 40.21484375 C-35.28501793 40.30664134 -38.6567208 39.81836613 -43 37 C-45.44935588 32.10128823 -44.72747905 25.31292668 -43.12890625 20.23046875 C-39.51922297 12.52586607 -34.19428994 6.35230205 -26.37890625 2.7734375 C-22.35354574 1.4646996 -18.23932823 0.93126721 -14.05078125 0.39453125 C-11.04584902 0.04475383 -11.04584902 0.04475383 -8.296875 -0.55859375 C-5.17922534 -1.1577339 -3.04375656 -0.90665089 0 0 Z " fill="#8CC541" transform="translate(323,141)"/>
<path d="M0 0 C23.43423726 -2.38314277 51.81723075 11.10281533 70 25 C74.17767678 28.48139732 78.08779223 32.22618325 82 36 C82.85464844 36.77988281 83.70929688 37.55976562 84.58984375 38.36328125 C92.74968795 46.03327698 101.3322625 56.22602109 105 67 C103.68 68.65 102.36 70.3 101 72 C96.52058698 71.89074602 94.44726734 70.76017432 91.4375 67.625 C90.89996094 67.01914063 90.36242187 66.41328125 89.80859375 65.7890625 C86.30969158 62.32794545 83.6023021 60.82354518 78.671875 60.77734375 C77.03082894 60.81566125 75.3900836 60.86948401 73.75 60.9375 C65.34798352 61.25240811 57.51052044 60.88585363 50.0625 56.5625 C48.96615234 55.94568359 48.96615234 55.94568359 47.84765625 55.31640625 C46 54 46 54 44 51 C43.74462891 48.91870117 43.74462891 48.91870117 43.7265625 46.54296875 C43.7059375 45.67736328 43.6853125 44.81175781 43.6640625 43.91992188 C43.6381897 42.11011917 43.61985991 40.30019164 43.609375 38.49023438 C43.45928824 32.86615003 42.89543963 29.3706565 39 25 C34.745159 21.50904428 30.09705675 21.22029436 24.8125 20.5625 C15.16166555 19.18970064 5.81964111 17.51909148 -1 10 C-2 6.375 -2 6.375 -2 3 C-1.34 2.01 -0.68 1.02 0 0 Z " fill="#8CC641" transform="translate(288,72)"/>
<path d="M0 0 C3.384906 1.83649155 5.13274061 3.72469612 6.5234375 7.24609375 C7.55968644 15.15926748 5.69210143 21.25575212 1.9609375 28.12109375 C-3.6822284 35.35592182 -10.52946397 41.29143787 -17.4765625 47.24609375 C-11.2065625 47.24609375 -4.9365625 47.24609375 1.5234375 47.24609375 C0.8634375 52.19609375 0.2034375 57.14609375 -0.4765625 62.24609375 C-13.3465625 62.24609375 -26.2165625 62.24609375 -39.4765625 62.24609375 C-37.66795555 51.39445206 -31.83989815 45.11540907 -24.4765625 37.24609375 C-22.77609513 35.27072403 -21.12427544 33.2658709 -19.4765625 31.24609375 C-20.01796875 30.19808594 -20.01796875 30.19808594 -20.5703125 29.12890625 C-21.034375 28.21882813 -21.4984375 27.30875 -21.9765625 26.37109375 C-22.440625 25.46617187 -22.9046875 24.56125 -23.3828125 23.62890625 C-24.4765625 21.24609375 -24.4765625 21.24609375 -24.4765625 19.24609375 C-26.7865625 19.24609375 -29.0965625 19.24609375 -31.4765625 19.24609375 C-31.00781938 12.9961855 -28.29181441 8.04754541 -23.8828125 3.66015625 C-17.30153522 -1.92102497 -8.23064107 -2.50554216 0 0 Z " fill="#E60616" transform="translate(160.4765625,250.75390625)"/>
<path d="M0 0 C0.02578125 1.12792969 0.0515625 2.25585938 0.078125 3.41796875 C0.62180702 20.27211148 3.28689791 36.3870831 9.046875 52.26171875 C10 55 10 55 10 57 C8.84242188 56.95359375 7.68484375 56.9071875 6.4921875 56.859375 C4.95315094 56.82183752 3.4140863 56.78543949 1.875 56.75 C1.11445313 56.71648437 0.35390625 56.68296875 -0.4296875 56.6484375 C-5.79816544 56.55587754 -8.72937453 57.45834836 -13 61 C-15.25293726 63.56584522 -17.1060541 66.15908115 -19 69 C-25.33820236 50.89123213 -31.50493525 31.43874699 -30 12 C-6.78640777 0 -6.78640777 0 0 0 Z " fill="#F6921F" transform="translate(150,194)"/>
<path d="M0 0 C0.99773437 0.02320313 1.99546875 0.04640625 3.0234375 0.0703125 C4.52777344 0.09738281 4.52777344 0.09738281 6.0625 0.125 C6.83335937 0.14820313 7.60421875 0.17140625 8.3984375 0.1953125 C6.58589473 13.23019456 4.63131874 26.22559806 2.3984375 39.1953125 C4.0484375 39.1953125 5.6984375 39.1953125 7.3984375 39.1953125 C7.0684375 43.4853125 6.7384375 47.7753125 6.3984375 52.1953125 C4.0884375 52.1953125 1.7784375 52.1953125 -0.6015625 52.1953125 C-0.9315625 55.8253125 -1.2615625 59.4553125 -1.6015625 63.1953125 C-5.2315625 63.1953125 -8.8615625 63.1953125 -12.6015625 63.1953125 C-12.2715625 59.5653125 -11.9415625 55.9353125 -11.6015625 52.1953125 C-19.1915625 52.1953125 -26.7815625 52.1953125 -34.6015625 52.1953125 C-33.99382187 41.13443307 -31.64593374 36.27234365 -24.7265625 27.9453125 C-19.24125924 21.27972653 -13.94281831 14.49305655 -8.74072266 7.60449219 C-8.22687012 6.92547852 -7.71301758 6.24646484 -7.18359375 5.546875 C-6.73218018 4.94697754 -6.2807666 4.34708008 -5.81567383 3.72900391 C-3.04464159 0.2285767 -3.04464159 0.2285767 0 0 Z " fill="#E30315" transform="translate(200.6015625,248.8046875)"/>
<path d="M0 0 C1.17430074 3.2681432 2.33811256 6.53992515 3.5 9.8125 C3.83386719 10.74126953 4.16773438 11.67003906 4.51171875 12.62695312 C4.82753906 13.51962891 5.14335937 14.41230469 5.46875 15.33203125 C5.76201172 16.15421143 6.05527344 16.9763916 6.35742188 17.82348633 C7 20 7 20 7 23 C8.98 23.495 8.98 23.495 11 24 C10 25 10 25 7.41209412 25.12025452 C6.25959671 25.11803391 5.1070993 25.11581329 3.91967773 25.11352539 C1.96776772 25.11341209 1.96776772 25.11341209 -0.02357483 25.11329651 C-1.45451902 25.10818909 -2.88546282 25.10297308 -4.31640625 25.09765625 C-5.7722926 25.09579203 -7.22817957 25.09436815 -8.68406677 25.09336853 C-12.52279379 25.08954365 -16.36148319 25.07971364 -20.20019531 25.06866455 C-24.11457816 25.05844978 -28.02896706 25.05387077 -31.94335938 25.04882812 C-39.62892343 25.03809134 -47.31445645 25.02101529 -55 25 C-55.33 24.34 -55.66 23.68 -56 23 C-54.68 23 -53.36 23 -52 23 C-51.84144531 22.41734375 -51.68289062 21.8346875 -51.51953125 21.234375 C-50.0942299 16.2261338 -48.4168262 11.43845668 -46.38671875 6.640625 C-45.93901123 5.57875977 -45.49130371 4.51689453 -45.0300293 3.42285156 C-44.69011963 2.62331055 -44.35020996 1.82376953 -44 1 C-38.69810644 0.85656123 -33.39618597 0.71417766 -28.09423828 0.57275391 C-26.29214724 0.52453851 -24.49006377 0.47603934 -22.68798828 0.42724609 C-20.09149095 0.35699299 -17.49496774 0.2877745 -14.8984375 0.21875 C-14.0982016 0.19687622 -13.2979657 0.17500244 -12.47348022 0.15246582 C-8.31414978 0.04294452 -4.16126933 -0.02327983 0 0 Z " fill="#CF8324" transform="translate(306,359)"/>
<path d="M0 0 C1.54399994 3.08799989 0.56641028 5.65817938 0 9 C-0.12568359 10.26263672 -0.12568359 10.26263672 -0.25390625 11.55078125 C-1 14 -1 14 -2.94140625 15.5546875 C-5.94846968 17.06942288 -8.95206221 18.56834008 -12 20 C-12.91338135 20.42998291 -12.91338135 20.42998291 -13.84521484 20.86865234 C-36.28565009 31.3256093 -69.2591912 42.24693627 -94 34 C-92.94124926 30.59687262 -91.99097846 27.98646769 -90 25 C-87.26049805 24.64697266 -87.26049805 24.64697266 -83.76171875 24.6640625 C-82.476604 24.65479736 -81.19148926 24.64553223 -79.86743164 24.63598633 C-79.18520538 24.63515045 -78.50297913 24.63431458 -77.80007935 24.63345337 C-63.9953999 24.57821471 -51.2041611 23.24020948 -38 19 C-37.27828613 18.77151367 -36.55657227 18.54302734 -35.81298828 18.30761719 C-23.08657531 14.16604114 -10.58201901 8.25913679 0 0 Z " fill="#FBFCF9" transform="translate(356,305)"/>
<path d="M0 0 C0.82886719 0.25007813 1.65773437 0.50015625 2.51171875 0.7578125 C3.76984375 1.1084375 5.02796875 1.4590625 6.32421875 1.8203125 C7.37609375 2.1296875 8.42796875 2.4390625 9.51171875 2.7578125 C7.1116661 5.17482665 4.70643976 7.57505387 2.22265625 9.90625 C-14.28504729 25.64101759 -26.92848277 46.52362435 -32.50390625 68.703125 C-32.82875 69.71117187 -33.15359375 70.71921875 -33.48828125 71.7578125 C-37.09980702 73.56357538 -39.43123608 73.7578125 -43.48828125 73.7578125 C-42.93751216 68.0855239 -41.86474367 63.10846311 -39.92578125 57.7578125 C-39.664021 57.02868652 -39.40226074 56.29956055 -39.13256836 55.54833984 C-34.72214203 43.63929102 -15.17851679 -1.47734386 0 0 Z " fill="#FDFBF8" transform="translate(187.48828125,98.2421875)"/>
<path d="M0 0 C0.67804688 0.43570312 1.35609375 0.87140625 2.0546875 1.3203125 C4.01959692 2.57763681 5.98868061 3.82845142 7.9609375 5.07421875 C9.74745453 6.20629188 11.52696496 7.34981121 13.2890625 8.51953125 C28.48762814 18.26702123 46.14428403 23.97228363 64 26 C62.35 28.97 60.7 31.94 59 35 C37.05889921 34.07291123 15.45625178 23.93858827 -2 11 C-1.34 7.37 -0.68 3.74 0 0 Z " fill="#FCFBFA" transform="translate(200,303)"/>
<path d="M0 0 C0.03867188 1.69189453 0.03867188 1.69189453 0.078125 3.41796875 C0.62180702 20.27211148 3.28689791 36.3870831 9.046875 52.26171875 C10 55 10 55 10 57 C6.37 56.34 2.74 55.68 -1 55 C-7.08834238 37.12000637 -9.52796133 20.90883732 -9 2 C-3.375 0 -3.375 0 0 0 Z " fill="#FDFBF7" transform="translate(150,194)"/>
<path d="M0 0 C1.4540625 0.0309375 1.4540625 0.0309375 2.9375 0.0625 C2.9375 2.3725 2.9375 4.6825 2.9375 7.0625 C3.9275 6.4025 4.9175 5.7425 5.9375 5.0625 C9 4.75 9 4.75 11.9375 5.0625 C14.19426604 8.44764906 14.11079248 9.08627767 13.625 12.9375 C13.51671875 13.81921875 13.4084375 14.7009375 13.296875 15.609375 C12.92960268 18.11640778 12.51341762 20.59428163 11.9375 23.0625 C9.6275 23.0625 7.3175 23.0625 4.9375 23.0625 C5.2675 19.1025 5.5975 15.1425 5.9375 11.0625 C1.8061365 12.54647601 1.8061365 12.54647601 1.109375 15.4453125 C0.97015625 16.35023438 0.8309375 17.25515625 0.6875 18.1875 C0.53796875 19.09757812 0.3884375 20.00765625 0.234375 20.9453125 C0.13640625 21.64398438 0.0384375 22.34265625 -0.0625 23.0625 C-2.0425 23.0625 -4.0225 23.0625 -6.0625 23.0625 C-6.3599708 15.62572999 -5.42162418 8.37399283 -4.0625 1.0625 C-3.0625 0.0625 -3.0625 0.0625 0 0 Z " fill="#DA0A1E" transform="translate(218.0625,243.9375)"/>
<path d="M0 0 C2.4375 0.8125 2.4375 0.8125 4.4375 2.8125 C4.76526702 8.93081779 3.08435095 11.70862509 -0.9375 16.3125 C-3.3359375 18.90625 -3.3359375 18.90625 -5.5625 20.8125 C-6.5525 20.8125 -7.5425 20.8125 -8.5625 20.8125 C-9.40069158 19.19000059 -10.2329116 17.56441503 -11.0625 15.9375 C-11.5265625 15.03257812 -11.990625 14.12765625 -12.46875 13.1953125 C-13.5625 10.8125 -13.5625 10.8125 -13.5625 8.8125 C-11.5825 8.8125 -9.6025 8.8125 -7.5625 8.8125 C-7.1603125 7.4203125 -7.1603125 7.4203125 -6.75 6 C-4.39490223 -0.32157821 -4.39490223 -0.32157821 0 0 Z " fill="#F68E1D" transform="translate(149.5625,261.1875)"/>
<path d="M0 0 C0.33 0 0.66 0 1 0 C0.85786703 1.89611434 0.71113093 3.79188394 0.5625 5.6875 C0.48128906 6.74324219 0.40007812 7.79898437 0.31640625 8.88671875 C0 12 0 12 -1 17 C-4.96 17 -8.92 17 -13 17 C-9.22338138 10.92457005 -4.71380115 5.37354208 0 0 Z " fill="#33A6DA" transform="translate(193,270)"/>
<path d="M0 0 C2.26277677 2.14262933 4.0849392 4.34366952 5.8125 6.9375 C6.50279297 7.94103516 6.50279297 7.94103516 7.20703125 8.96484375 C8 11 8 11 7.26953125 13.11328125 C5.75099098 15.37006571 3.98472343 17.14759147 2 19 C0.00160414 17.00160414 -1.57589749 15.39987646 -3 13 C-2.91714461 8.36009803 -1.58740755 4.33891397 0 0 Z " fill="#FCF6F6" transform="translate(167,266)"/>
<path d="M0 0 C0.33 0 0.66 0 1 0 C2.17710003 15.56387816 -1.57902299 30.64843751 -8.0625 44.75 C-8.39056641 45.47098877 -8.71863281 46.19197754 -9.05664062 46.93481445 C-10.03515625 48.921875 -10.03515625 48.921875 -12 52 C-14.12280273 52.69238281 -14.12280273 52.69238281 -16 53 C-14.48274651 48.98153161 -12.60885531 45.24494283 -10.625 41.4375 C-3.86889356 28.13712669 -1.08808961 14.80374546 0 0 Z " fill="#B7314C" transform="translate(275,285)"/>
<path d="M0 0 C2.97 0 5.94 0 9 0 C9.33 1.32 9.66 2.64 10 4 C6.7 4 3.4 4 0 4 C0 2.68 0 1.36 0 0 Z " fill="#E70C1D" transform="translate(92,281)"/>
<path d="M0 0 C0.99 0.33 1.98 0.66 3 1 C3 3.97 3 6.94 3 10 C1.68 10 0.36 10 -1 10 C-1.02689216 8.52093108 -1.04634621 7.04172517 -1.0625 5.5625 C-1.07410156 4.73878906 -1.08570313 3.91507812 -1.09765625 3.06640625 C-1 1 -1 1 0 0 Z " fill="#E60719" transform="translate(172,354)"/>
<path d="M0 0 C2.97 0 5.94 0 9 0 C9 1.32 9 2.64 9 4 C6.03 4 3.06 4 0 4 C0 2.68 0 1.36 0 0 Z " fill="#DF0519" transform="translate(245,281)"/>
<path d="M0 0 C0.99 0.33 1.98 0.66 3 1 C3 3.97 3 6.94 3 10 C1.68 10 0.36 10 -1 10 C-1.02689216 8.52093108 -1.04634621 7.04172517 -1.0625 5.5625 C-1.07410156 4.73878906 -1.08570313 3.91507813 -1.09765625 3.06640625 C-1 1 -1 1 0 0 Z " fill="#E30613" transform="translate(172,201)"/>
<path d="M0 0 C1.9375 0.8125 1.9375 0.8125 4 2 C4.33 2.99 4.66 3.98 5 5 C2.03 5 -0.94 5 -4 5 C-2.68 3.35 -1.36 1.7 0 0 Z " fill="#FEF8F5" transform="translate(147,293)"/>
<path d="M0 0 C1.12377697 3.30435084 0.89554742 5.0506862 -0.4375 8.25 C-0.72496094 8.95640625 -1.01242187 9.6628125 -1.30859375 10.390625 C-1.53675781 10.92171875 -1.76492188 11.4528125 -2 12 C-2.66 11.67 -3.32 11.34 -4 11 C-3.52269162 9.5410574 -3.04308958 8.08286504 -2.5625 6.625 C-2.29566406 5.81289063 -2.02882813 5.00078125 -1.75390625 4.1640625 C-1 2 -1 2 0 0 Z " fill="#C51D35" transform="translate(271,312)"/>
</svg>
